<?xml version="1.0" encoding="iso-8859-1"?>
<!-- Generator: Adobe Illustrator 19.0.0, SVG Export Plug-In . SVG Version: 6.00 Build 0)  -->
<svg version="1.1" id="Layer_1" xmlns="http://www.w3.org/2000/svg" xmlns:xlink="http://www.w3.org/1999/xlink" x="0px" y="0px"
	 viewBox="0 0 512.004 512.004" style="enable-background:new 0 0 512.004 512.004;" xml:space="preserve">
<path style="fill:#945C2B;" d="M511.981,248.274c-0.011-0.113-0.01-0.227-0.026-0.339c-0.007-0.049-0.025-0.095-0.032-0.144
	c-0.134-0.755-0.41-1.483-0.842-2.137c-0.014-0.02-0.031-0.039-0.044-0.058c-0.142-0.21-0.297-0.415-0.469-0.607
	c-0.015-0.017-0.032-0.029-0.046-0.045c-1.516-1.648-3.861-2.253-5.986-1.535l-0.02,0.007l-0.368,0.125
	c-0.016,0.006-0.033,0.011-0.049,0.016c-0.346,0.116-0.71,0.236-1.126,0.37l-0.154,0.05c-0.424,0.137-0.875,0.279-1.257,0.397
	l-0.058,0.017c-0.009,0.002-0.017,0.006-0.025,0.008l-0.079,0.022l-3.379,0.982l-1.56,0.416c-0.509,0.133-1.033,0.264-1.532,0.385
	l-0.023,0.006c-0.005,0.001-0.008,0.002-0.011,0.003l-0.208,0.049l-0.067,0.016c-0.445,0.108-0.847,0.203-1.241,0.292
	c-0.039,0.009-0.08,0.019-0.121,0.028l-0.215,0.049l-0.284,0.065c-0.448,0.099-0.823,0.181-1.189,0.259l-0.648,0.136
	c-0.383,0.079-0.77,0.155-1.156,0.231l-0.606,0.119c-0.003,0.001-0.007,0.001-0.009,0.001l-0.02,0.003
	c-0.21,0.04-0.445,0.082-0.668,0.121c-0.257,0.048-0.511,0.095-0.775,0.142l-0.321,0.058c-0.599,0.103-1.207,0.203-1.779,0.293
	l-0.014,0.002c-0.011,0.001-0.022,0.003-0.031,0.005l-0.56,0.084c-0.071,0.01-0.144,0.02-0.214,0.031
	c-0.363,0.054-0.726,0.109-1.074,0.157l-0.429,0.058l-0.315,0.043c-0.265,0.035-0.544,0.069-0.82,0.104
	c-0.131,0.017-0.264,0.034-0.395,0.05l-0.562,0.067l-0.197,0.024c-0.42,0.048-0.875,0.096-1.335,0.144l-0.347,0.035l-0.254,0.026
	c-0.009,0.001-0.018,0.001-0.025,0.002l-0.017,0.001c-0.263,0.025-0.551,0.048-0.826,0.071c-0.365,0.033-0.736,0.069-1.087,0.096
	l-0.02,0.001c-0.005,0-0.007,0.001-0.009,0.001l-0.128,0.009l-0.232,0.017c-0.556,0.041-1.114,0.079-1.646,0.111l-0.029,0.002
	l-0.725,0.039c-0.383,0.02-0.776,0.037-1.175,0.054c-0.053,0.002-0.112,0.006-0.164,0.008h-0.009c-0.009,0-0.019,0.001-0.028,0.001
	l-0.454,0.016l-0.315,0.011c-0.007,0-0.014,0.001-0.02,0.001h-0.002c-0.436,0.014-0.897,0.025-1.369,0.034l-0.614,0.01l-0.139,0.002
	c0,0-0.002,0-0.003,0l-0.029,0.001c-0.279,0.003-0.591,0.003-0.902,0.005c-0.052,0-0.105,0.001-0.156,0.001h-0.009
	c-0.002,0-0.002,0-0.005,0h-0.044l-0.668-0.001l-0.164,0.001h-0.019h-0.01h-0.025l-0.142-0.001c-0.595-0.006-1.23-0.02-1.866-0.039
	c-0.066-0.001-0.138-0.001-0.203-0.003h-0.007c-0.016-0.001-0.028-0.001-0.043-0.001l-0.477-0.019l-0.168-0.006
	c-0.519-0.019-1.037-0.041-1.525-0.066l-0.007-0.001c-0.006,0-0.011,0-0.016,0l-0.845-0.049c-0.167-0.01-0.334-0.023-0.502-0.034
	c-0.301-0.019-0.604-0.039-0.896-0.06l-0.248-0.019l-0.657-0.051c-0.404-0.034-0.836-0.075-1.266-0.117
	c-0.077-0.007-0.153-0.014-0.23-0.022l-0.75-0.074c-0.005-0.001-0.009-0.001-0.014-0.001l-0.02-0.001
	c-0.011-0.001-0.025-0.003-0.037-0.005c-0.721-0.076-1.445-0.161-2.115-0.247l-0.054-0.007c-0.01-0.001-0.022-0.002-0.029-0.003
	l-0.223-0.032l-0.128-0.018c-0.646-0.086-1.288-0.177-1.886-0.269l-0.023-0.003c-0.01-0.001-0.019-0.002-0.027-0.003l-0.81-0.13
	c-0.506-0.083-1.016-0.168-1.527-0.259l-0.927-0.171c-0.401-0.076-0.821-0.16-1.237-0.245c-0.077-0.016-0.155-0.029-0.232-0.045
	l-0.889-0.185c-0.005,0-0.009-0.001-0.014-0.002l-0.018-0.003c-0.346-0.074-0.718-0.161-1.084-0.245
	c-0.223-0.052-0.438-0.096-0.668-0.151l-0.582-0.134c-0.002,0-0.002-0.001-0.005-0.001l-0.053-0.012
	c-0.469-0.113-0.968-0.24-1.471-0.37c-0.261-0.068-0.523-0.135-0.776-0.203l-0.116-0.032l-0.646-0.179
	c-0.127-0.035-0.255-0.073-0.382-0.109c-0.431-0.12-0.864-0.24-1.267-0.359l-0.791-0.24l-0.18-0.054
	c-0.053-0.017-0.111-0.035-0.165-0.052c-0.478-0.148-0.915-0.286-1.324-0.419c-0.011-0.003-0.022-0.007-0.032-0.01l-0.404-0.134
	l-0.518-0.17c-0.011-0.003-0.02-0.007-0.028-0.01l-0.014-0.005c-0.499-0.168-1.031-0.355-1.571-0.546l-0.293-0.104l-0.543-0.194
	c-0.002-0.001-0.005-0.002-0.008-0.003l-0.043-0.015c-0.414-0.152-0.843-0.313-1.277-0.478c-0.349-0.134-0.693-0.266-1.026-0.399
	l-0.284-0.117c-0.789-0.317-1.499-0.612-2.161-0.895l-0.929-0.408c-0.526-0.231-1.054-0.468-1.518-0.682l-0.033-0.016
	c-0.012-0.006-0.023-0.01-0.034-0.016l-1.594-0.761l-0.124-0.059v-0.001l-0.002-0.001l-1.464-0.975
	c-9.503-4.754-21.409-12.185-30.742-22.817c-21.5-21.225-42.873-30.434-60.526-33.935c-0.002-0.001-0.005-0.001-0.007-0.001
	c-0.762-0.151-1.518-0.291-2.266-0.421c-0.031-0.006-0.061-0.01-0.091-0.015c-0.719-0.125-1.434-0.24-2.139-0.347
	c-0.066-0.01-0.129-0.018-0.194-0.027c-0.671-0.1-1.336-0.193-1.993-0.278c-0.101-0.012-0.201-0.023-0.302-0.035
	c-0.617-0.077-1.233-0.15-1.839-0.214c-0.146-0.016-0.288-0.027-0.433-0.042c-0.559-0.057-1.114-0.111-1.662-0.156
	c-0.189-0.016-0.373-0.027-0.562-0.042c-0.496-0.039-0.995-0.077-1.484-0.108c-0.25-0.016-0.493-0.025-0.74-0.039
	c-0.419-0.023-0.842-0.048-1.255-0.065c-0.351-0.015-0.696-0.022-1.043-0.032c-0.3-0.009-0.603-0.022-0.898-0.027
	c-0.641-0.012-1.271-0.019-1.893-0.019c-27.317,0-48.55,11.538-58.43,21.418l0,0c-9.881-9.881-31.113-21.418-58.431-21.418
	c-0.621,0-1.252,0.007-1.892,0.019c-0.296,0.006-0.598,0.018-0.898,0.027c-0.348,0.01-0.691,0.018-1.043,0.032
	c-0.414,0.017-0.836,0.042-1.255,0.065c-0.248,0.014-0.491,0.023-0.74,0.039c-0.489,0.031-0.987,0.069-1.484,0.108
	c-0.189,0.015-0.373,0.026-0.562,0.042c-0.547,0.045-1.104,0.1-1.662,0.156c-0.145,0.015-0.287,0.026-0.433,0.042
	c-0.606,0.063-1.221,0.137-1.839,0.214c-0.102,0.012-0.202,0.023-0.303,0.035c-0.658,0.084-1.322,0.178-1.993,0.278
	c-0.065,0.01-0.128,0.018-0.194,0.027c-0.705,0.106-1.42,0.222-2.139,0.347c-0.029,0.005-0.06,0.009-0.091,0.015
	c-0.748,0.13-1.503,0.271-2.266,0.421c-0.002,0.001-0.005,0.001-0.007,0.001c-17.653,3.501-39.025,12.71-60.526,33.935
	c-9.333,10.632-21.239,18.063-30.742,22.817l-1.464,0.975l-0.002,0.001v0.001l-0.123,0.059l-1.594,0.761
	c-0.012,0.006-0.024,0.01-0.034,0.016l-0.033,0.016c-0.465,0.214-0.994,0.451-1.518,0.682l-0.929,0.408
	c-0.662,0.283-1.372,0.577-2.161,0.895l-0.284,0.117c-0.333,0.133-0.68,0.265-1.026,0.399c-0.434,0.165-0.863,0.326-1.277,0.478
	l-0.043,0.015c-0.003,0.001-0.006,0.002-0.008,0.003l-0.544,0.194l-0.292,0.104c-0.539,0.191-1.073,0.378-1.571,0.546l-0.014,0.005
	c-0.009,0.003-0.018,0.007-0.028,0.01l-0.518,0.17l-0.404,0.134c-0.011,0.003-0.022,0.007-0.032,0.01
	c-0.409,0.134-0.846,0.271-1.324,0.419c-0.056,0.017-0.113,0.036-0.165,0.052l-0.181,0.054l-0.79,0.24
	c-0.402,0.119-0.836,0.239-1.267,0.359c-0.127,0.036-0.255,0.074-0.382,0.109l-0.646,0.179l-0.116,0.032
	c-0.253,0.068-0.514,0.135-0.776,0.203c-0.503,0.13-1.002,0.257-1.471,0.37l-0.054,0.012c-0.001,0.001-0.001,0.001-0.003,0.001
	l-0.582,0.134c-0.23,0.054-0.445,0.1-0.668,0.151c-0.366,0.084-0.739,0.171-1.084,0.245l-0.018,0.003
	c-0.005,0.001-0.009,0.002-0.014,0.002l-0.889,0.185c-0.077,0.016-0.155,0.029-0.232,0.045c-0.416,0.085-0.836,0.169-1.237,0.245
	l-0.927,0.171c-0.511,0.091-1.02,0.177-1.527,0.259l-0.81,0.13c-0.009,0.001-0.018,0.002-0.028,0.003l-0.022,0.003
	c-0.598,0.092-1.241,0.184-1.886,0.269l-0.128,0.018l-0.223,0.032c-0.01,0.001-0.02,0.002-0.029,0.003l-0.054,0.007
	c-0.671,0.086-1.395,0.17-2.115,0.247c-0.014,0.001-0.026,0.003-0.037,0.005l-0.02,0.001c-0.005,0.001-0.009,0.001-0.014,0.001
	l-0.75,0.074c-0.077,0.008-0.154,0.014-0.23,0.022c-0.429,0.042-0.861,0.083-1.266,0.117l-0.657,0.051l-0.248,0.019
	c-0.292,0.022-0.595,0.041-0.896,0.06c-0.169,0.011-0.336,0.024-0.502,0.034l-0.845,0.049c-0.005,0-0.01,0-0.016,0l-0.007,0.001
	c-0.488,0.025-1.006,0.048-1.525,0.066l-0.168,0.006l-0.477,0.019c-0.015,0-0.027,0-0.043,0.001h-0.007
	c-0.065,0.002-0.137,0.002-0.203,0.003c-0.637,0.018-1.271,0.032-1.866,0.039l-0.142,0.001h-0.024h-0.01h-0.019l-0.164-0.001
	l-0.668,0.001h-0.044c-0.002,0-0.002,0-0.005,0h-0.009c-0.051,0-0.104-0.001-0.156-0.001c-0.31-0.001-0.623-0.001-0.902-0.005
	l-0.029-0.001c-0.001,0-0.003,0-0.003,0l-0.139-0.002l-0.615-0.01c-0.471-0.009-0.931-0.02-1.368-0.034h-0.002
	c-0.007,0-0.014-0.001-0.02-0.001l-0.315-0.011l-0.454-0.016c-0.011-0.001-0.02-0.001-0.028-0.001h-0.009
	c-0.052-0.002-0.111-0.006-0.164-0.008c-0.399-0.017-0.792-0.034-1.175-0.054l-0.725-0.039l-0.029-0.002
	c-0.532-0.032-1.091-0.069-1.646-0.111l-0.232-0.017l-0.128-0.009c-0.002,0-0.006-0.001-0.009-0.001l-0.02-0.001
	c-0.35-0.027-0.722-0.063-1.087-0.096c-0.274-0.024-0.562-0.046-0.826-0.071l-0.017-0.001c-0.008-0.001-0.017-0.001-0.025-0.002
	l-0.254-0.026l-0.347-0.035c-0.46-0.048-0.915-0.096-1.335-0.144l-0.197-0.024l-0.562-0.067c-0.13-0.016-0.263-0.034-0.395-0.05
	c-0.275-0.035-0.554-0.069-0.82-0.104l-0.315-0.043l-0.431-0.058c-0.348-0.049-0.71-0.103-1.073-0.157
	c-0.071-0.01-0.144-0.02-0.214-0.031l-0.56-0.084c-0.01-0.001-0.02-0.003-0.031-0.005l-0.014-0.002
	c-0.573-0.091-1.179-0.189-1.779-0.293l-0.321-0.058c-0.263-0.048-0.518-0.094-0.775-0.142c-0.222-0.041-0.458-0.082-0.668-0.121
	l-0.02-0.003c-0.002-0.001-0.006-0.001-0.009-0.001l-0.606-0.119c-0.385-0.076-0.773-0.152-1.155-0.231l-0.648-0.136
	c-0.366-0.078-0.742-0.161-1.188-0.259l-0.286-0.065l-0.214-0.049c-0.04-0.009-0.082-0.019-0.12-0.028
	c-0.393-0.09-0.795-0.185-1.241-0.292l-0.067-0.016l-0.208-0.049c-0.003-0.001-0.007-0.002-0.011-0.003l-0.023-0.006
	c-0.497-0.121-1.022-0.254-1.532-0.385l-1.56-0.416l-3.379-0.982l-0.079-0.022c-0.009-0.002-0.018-0.006-0.026-0.008l-0.058-0.017
	c-0.382-0.118-0.833-0.259-1.258-0.397l-0.153-0.05c-0.416-0.135-0.781-0.255-1.126-0.37c-0.016-0.005-0.033-0.01-0.049-0.016
	l-0.369-0.125l-0.02-0.007c-2.124-0.718-4.47-0.113-5.986,1.535c-0.015,0.017-0.032,0.029-0.046,0.045
	c-0.172,0.193-0.327,0.398-0.469,0.607c-0.014,0.02-0.031,0.039-0.044,0.058c-0.432,0.654-0.708,1.382-0.842,2.137
	c-0.008,0.049-0.026,0.095-0.032,0.144c-0.017,0.112-0.016,0.225-0.026,0.339c-0.086,0.97,0.063,1.963,0.491,2.883
	c26.574,57.271,78.141,65.822,106.517,65.822c13.064,0,21.899-1.804,21.942-1.813l0.003-0.001l0,0h0.002l-4.312,8.052
	c-0.002,0.003-0.005,0.007-0.007,0.01l-0.216,0.407c-0.707,1.318-0.85,2.84-0.449,4.238c0.012,0.043,0.026,0.085,0.04,0.128
	c0.139,0.445,0.331,0.876,0.581,1.284c0.113,0.182,0.24,0.353,0.372,0.519c0.049,0.062,0.097,0.121,0.148,0.181
	c0.429,0.5,0.938,0.915,1.502,1.234c0.067,0.037,0.133,0.074,0.199,0.109c0.544,0.279,1.135,0.467,1.752,0.563
	c0.203,0.029,0.406,0.054,0.616,0.062c0.128,0.007,0.256,0.02,0.385,0.019c61.22-1.665,92.028-19.217,107.09-33.648
	c12.224-11.713,16.732-23.325,18.384-29.881l0.937,0.003l0.937-0.003c1.652,6.557,6.16,18.168,18.384,29.881
	c15.063,14.431,45.87,31.984,107.09,33.648c0.129,0.002,0.257-0.012,0.385-0.019c0.21-0.008,0.414-0.032,0.616-0.062
	c0.616-0.096,1.207-0.284,1.752-0.563c0.067-0.035,0.133-0.071,0.199-0.109c0.564-0.318,1.073-0.733,1.502-1.234
	c0.051-0.06,0.1-0.119,0.148-0.181c0.131-0.165,0.258-0.337,0.372-0.519c0.25-0.407,0.442-0.838,0.581-1.284
	c0.012-0.043,0.028-0.085,0.04-0.128c0.401-1.398,0.257-2.921-0.449-4.238l-0.216-0.407c-0.002-0.003-0.005-0.007-0.007-0.01
	l-4.313-8.052h0.002l0,0l0.005,0.001c0.042,0.009,8.878,1.813,21.942,1.813c28.375,0,79.943-8.552,106.517-65.822
	C511.918,250.238,512.066,249.244,511.981,248.274z"/>
<path style="fill:#844719;" d="M189.237,316.77c-39.21,0-70.997-31.787-70.997-70.997c0-15.696,5.103-30.195,13.727-41.948
	c-4.544,3.497-9.13,7.476-13.718,12.008c-9.333,10.632-21.239,18.063-30.742,22.817l-1.464,0.975l-0.002,0.001v0.001l-0.123,0.059
	l-1.594,0.761c-0.012,0.006-0.024,0.01-0.034,0.016l-0.033,0.016c-0.465,0.214-0.994,0.451-1.518,0.682l-0.929,0.408
	c-0.662,0.283-1.372,0.577-2.161,0.895l-0.284,0.117c-0.333,0.133-0.68,0.265-1.026,0.399c-0.434,0.165-0.863,0.326-1.277,0.478
	l-0.043,0.015c-0.003,0.001-0.006,0.002-0.008,0.003l-0.544,0.194l-0.292,0.104c-0.539,0.191-1.073,0.378-1.571,0.546l-0.014,0.005
	c-0.009,0.003-0.018,0.007-0.028,0.01l-0.518,0.17l-0.404,0.134c-0.011,0.003-0.022,0.007-0.032,0.01
	c-0.409,0.134-0.846,0.271-1.324,0.419c-0.056,0.017-0.113,0.036-0.165,0.052l-0.181,0.054l-0.79,0.24
	c-0.402,0.119-0.836,0.239-1.267,0.359c-0.127,0.036-0.255,0.074-0.382,0.109l-0.646,0.179l-0.116,0.032
	c-0.253,0.068-0.514,0.135-0.776,0.203c-0.503,0.13-1.002,0.257-1.471,0.37l-0.054,0.012c-0.001,0.001-0.001,0.001-0.003,0.001
	l-0.582,0.134c-0.23,0.054-0.445,0.1-0.668,0.151c-0.366,0.084-0.739,0.171-1.084,0.245l-0.018,0.003
	c-0.005,0.001-0.009,0.002-0.014,0.002l-0.889,0.185c-0.077,0.016-0.155,0.029-0.232,0.045c-0.416,0.085-0.836,0.169-1.237,0.245
	l-0.927,0.171c-0.511,0.091-1.02,0.177-1.527,0.259l-0.81,0.13c-0.009,0.001-0.018,0.002-0.028,0.003l-0.022,0.003
	c-0.598,0.092-1.241,0.184-1.886,0.269l-0.128,0.018l-0.223,0.032c-0.01,0.001-0.02,0.002-0.029,0.003l-0.054,0.007
	c-0.671,0.086-1.395,0.17-2.115,0.247c-0.014,0.001-0.026,0.003-0.037,0.005l-0.02,0.001c-0.005,0.001-0.009,0.001-0.014,0.001
	l-0.75,0.074c-0.077,0.008-0.154,0.014-0.23,0.022c-0.429,0.042-0.861,0.083-1.266,0.117l-0.657,0.051l-0.248,0.019
	c-0.292,0.022-0.595,0.041-0.896,0.06c-0.169,0.011-0.336,0.024-0.502,0.034l-0.845,0.049c-0.005,0-0.01,0-0.016,0l-0.007,0.001
	c-0.488,0.025-1.006,0.048-1.525,0.066l-0.168,0.006l-0.477,0.019c-0.015,0-0.027,0-0.043,0.001h-0.007
	c-0.065,0.002-0.137,0.002-0.203,0.003c-0.637,0.018-1.271,0.032-1.866,0.039l-0.142,0.001h-0.024h-0.01h-0.019L43.82,249.4
	l-0.668,0.001h-0.044c-0.002,0-0.002,0-0.005,0h-0.009c-0.051,0-0.104-0.001-0.156-0.001c-0.31-0.001-0.623-0.001-0.902-0.005
	l-0.029-0.001c-0.001,0-0.003,0-0.003,0l-0.139-0.002l-0.615-0.01c-0.471-0.009-0.931-0.02-1.368-0.034h-0.002
	c-0.007,0-0.014-0.001-0.02-0.001l-0.315-0.011l-0.454-0.016c-0.011-0.001-0.02-0.001-0.028-0.001h-0.009
	c-0.052-0.002-0.111-0.006-0.164-0.008c-0.399-0.017-0.792-0.034-1.175-0.054l-0.725-0.039l-0.029-0.002
	c-0.532-0.032-1.091-0.069-1.646-0.111l-0.232-0.017l-0.128-0.009c-0.002,0-0.006-0.001-0.009-0.001l-0.02-0.001
	c-0.35-0.027-0.722-0.063-1.087-0.096c-0.274-0.024-0.562-0.046-0.826-0.071l-0.017-0.001c-0.008-0.001-0.017-0.001-0.025-0.002
	l-0.254-0.026l-0.347-0.035c-0.46-0.048-0.915-0.096-1.335-0.144l-0.197-0.024l-0.562-0.067c-0.13-0.016-0.263-0.034-0.395-0.05
	c-0.275-0.035-0.554-0.069-0.82-0.104l-0.315-0.043l-0.431-0.058c-0.348-0.049-0.71-0.103-1.073-0.157
	c-0.071-0.01-0.144-0.02-0.214-0.031l-0.56-0.084c-0.01-0.001-0.02-0.003-0.031-0.005l-0.014-0.002
	c-0.573-0.091-1.179-0.189-1.779-0.293l-0.321-0.058c-0.263-0.048-0.518-0.094-0.775-0.142c-0.222-0.041-0.458-0.082-0.668-0.121
	l-0.02-0.003c-0.002-0.001-0.006-0.001-0.009-0.001l-0.606-0.119c-0.385-0.076-0.773-0.152-1.155-0.231l-0.648-0.136
	c-0.366-0.078-0.742-0.161-1.188-0.259l-0.286-0.065l-0.214-0.049c-0.04-0.009-0.082-0.019-0.12-0.028
	c-0.393-0.089-0.795-0.185-1.241-0.292l-0.067-0.016l-0.208-0.049c-0.003-0.001-0.007-0.002-0.011-0.003l-0.023-0.006
	c-0.497-0.121-1.022-0.254-1.532-0.385l-1.56-0.416l-3.379-0.982l-0.079-0.022c-0.009-0.002-0.018-0.006-0.026-0.008l-0.058-0.017
	c-0.382-0.118-0.833-0.259-1.258-0.397l-0.153-0.05c-0.416-0.135-0.781-0.255-1.126-0.37c-0.016-0.005-0.033-0.01-0.049-0.016
	l-0.369-0.125l-0.02-0.007c-2.124-0.718-4.47-0.113-5.986,1.535c-0.015,0.017-0.032,0.029-0.046,0.045
	c-0.172,0.193-0.327,0.398-0.469,0.607c-0.014,0.02-0.031,0.039-0.044,0.058c-0.432,0.654-0.708,1.382-0.842,2.137
	c-0.008,0.049-0.026,0.095-0.032,0.144c-0.017,0.112-0.016,0.225-0.026,0.339c-0.086,0.97,0.063,1.963,0.491,2.883
	c26.574,57.271,78.141,65.822,106.517,65.822c13.064,0,21.899-1.804,21.942-1.813l0.003-0.001h0.002l-4.312,8.052
	c-0.002,0.003-0.005,0.007-0.007,0.01l-0.216,0.407c-0.707,1.318-0.85,2.84-0.449,4.238c0.012,0.043,0.026,0.085,0.04,0.128
	c0.139,0.445,0.331,0.876,0.581,1.284c0.113,0.182,0.24,0.353,0.372,0.519c0.049,0.062,0.097,0.121,0.148,0.181
	c0.429,0.5,0.938,0.915,1.502,1.234c0.067,0.037,0.133,0.074,0.199,0.109c0.544,0.279,1.135,0.467,1.752,0.563
	c0.203,0.029,0.406,0.054,0.616,0.062c0.128,0.007,0.256,0.02,0.385,0.019c55.982-1.523,86.522-16.328,102.858-29.887
	C220.48,311.288,205.503,316.77,189.237,316.77z"/>
<path style="fill:#A06335;" d="M511.885,249.919c0.015-0.071,0.034-0.142,0.045-0.213c0.036-0.224,0.059-0.451,0.067-0.676
	c0.002-0.011,0.003-0.024,0.005-0.035c0.007-0.24,0-0.482-0.02-0.722c-0.011-0.113-0.01-0.227-0.026-0.339
	c-0.002-0.011-0.005-0.023-0.007-0.033c-0.007-0.039-0.02-0.076-0.026-0.116c-0.06-0.34-0.16-0.672-0.279-0.997
	c-0.024-0.061-0.044-0.123-0.071-0.184c-0.133-0.33-0.292-0.65-0.492-0.952c-0.014-0.02-0.031-0.039-0.044-0.058
	c-0.142-0.21-0.297-0.415-0.469-0.607c-0.018-0.02-0.04-0.036-0.059-0.057c-0.756-0.818-1.716-1.378-2.752-1.644
	c-0.011-0.002-0.023-0.003-0.033-0.006c-0.249-0.062-0.502-0.11-0.758-0.138c-0.057-0.006-0.112-0.002-0.168-0.007
	c-0.213-0.017-0.426-0.032-0.64-0.024c-0.121,0.005-0.242,0.026-0.364,0.039c-0.15,0.015-0.3,0.022-0.451,0.049
	c-0.272,0.049-0.542,0.118-0.808,0.208l-0.39,0.131c-0.029,0.01-0.062,0.02-0.093,0.031c-0.332,0.111-0.683,0.227-1.082,0.356
	l-0.154,0.05c-0.424,0.137-0.875,0.279-1.256,0.397l-0.062,0.018c-0.008,0.002-0.015,0.005-0.022,0.007l-0.069,0.019l-3.39,0.986
	l-1.56,0.416c-0.509,0.133-1.033,0.264-1.532,0.385l-0.023,0.006c-0.005,0.001-0.008,0.002-0.011,0.003l-0.102,0.024l-0.172,0.041
	c-0.44,0.107-0.838,0.201-1.227,0.289c-0.005,0.001-0.01,0.002-0.014,0.003c-0.039,0.009-0.08,0.019-0.121,0.028l-0.213,0.048
	l-0.288,0.065c-0.448,0.099-0.823,0.181-1.189,0.259l-0.648,0.136c-0.383,0.079-0.77,0.155-1.156,0.231l-0.606,0.119
	c-0.003,0.001-0.007,0.001-0.009,0.001l-0.02,0.003c-0.126,0.024-0.265,0.049-0.401,0.072c-0.344,0.065-0.687,0.128-1.041,0.19
	l-0.321,0.058c-0.599,0.103-1.207,0.203-1.779,0.293l-0.014,0.002c-0.011,0.001-0.022,0.003-0.031,0.005l-0.56,0.084
	c-0.023,0.003-0.044,0.007-0.067,0.009c-0.416,0.062-0.826,0.123-1.222,0.179l-0.429,0.058l-0.315,0.043
	c-0.265,0.035-0.544,0.069-0.82,0.104c-0.131,0.017-0.264,0.034-0.395,0.05l-0.689,0.083l-0.069,0.008
	c-0.42,0.048-0.875,0.096-1.335,0.144l-0.347,0.035l-0.254,0.026c-0.009,0.001-0.018,0.001-0.025,0.002l-0.017,0.001
	c-0.116,0.011-0.241,0.022-0.363,0.032c-0.523,0.049-1.049,0.096-1.549,0.136l-0.02,0.001c-0.005,0-0.007,0.001-0.009,0.001
	l-0.045,0.003l-0.315,0.023c-0.556,0.041-1.114,0.079-1.646,0.111l-0.029,0.002l-0.725,0.039c-0.324,0.017-0.661,0.032-0.998,0.045
	c-0.112,0.005-0.232,0.011-0.341,0.016h-0.009c-0.009,0-0.019,0.001-0.028,0.001l-0.454,0.016l-0.315,0.011
	c-0.007,0-0.014,0.001-0.02,0.001h-0.002c-0.436,0.014-0.897,0.025-1.369,0.034l-0.267,0.005l-0.486,0.009c-0.001,0-0.003,0-0.005,0
	l-0.028,0.001c-0.17,0.001-0.361,0.002-0.548,0.003c-0.17,0.001-0.342,0.002-0.509,0.002h-0.009c-0.002,0-0.002,0-0.005,0h-0.044
	h-0.286l-0.411-0.001l-0.135,0.001h-0.019h-0.01h-0.025l-0.142-0.001c-0.511-0.005-1.058-0.018-1.603-0.033
	c-0.152-0.005-0.317-0.005-0.466-0.009h-0.007c-0.016-0.001-0.028-0.001-0.043-0.001l-0.373-0.015l-0.272-0.01
	c-0.519-0.019-1.037-0.041-1.525-0.066l-0.014-0.001c-0.002,0-0.007,0-0.009,0l-0.845-0.049c-0.126-0.008-0.254-0.017-0.381-0.025
	c-0.342-0.023-0.687-0.044-1.019-0.068l-0.248-0.019l-0.657-0.051c-0.404-0.034-0.836-0.075-1.266-0.117
	c-0.077-0.007-0.153-0.014-0.23-0.022l-0.75-0.074c-0.009-0.001-0.016-0.001-0.025-0.003h-0.009
	c-0.011-0.001-0.023-0.003-0.034-0.003c-0.357-0.039-0.716-0.078-1.067-0.119c-0.359-0.042-0.713-0.085-1.051-0.128l-0.054-0.007
	c-0.01-0.001-0.022-0.002-0.029-0.003l-0.181-0.026l-0.17-0.024c-0.646-0.086-1.288-0.177-1.886-0.269l-0.034-0.006
	c-0.006-0.001-0.011-0.001-0.016-0.002l-0.81-0.13c-0.506-0.083-1.016-0.168-1.527-0.259l-0.927-0.171
	c-0.312-0.059-0.639-0.125-0.964-0.19c-0.167-0.034-0.338-0.066-0.505-0.1l-0.889-0.185c-0.005-0.001-0.009-0.002-0.014-0.002
	l-0.018-0.003c-0.346-0.074-0.718-0.161-1.084-0.245c-0.223-0.052-0.438-0.096-0.668-0.151l-0.582-0.134
	c-0.006-0.001-0.011-0.003-0.016-0.003l-0.042-0.009c-0.082-0.02-0.174-0.044-0.259-0.065c-0.407-0.1-0.81-0.202-1.21-0.305
	c0,0,0-0.001-0.001-0.001c-0.261-0.068-0.523-0.135-0.776-0.203l-0.309-0.086l-0.451-0.125c-0.082-0.023-0.164-0.046-0.246-0.07
	c-0.478-0.133-0.957-0.266-1.403-0.399l-0.791-0.24l-0.18-0.054c-0.046-0.015-0.097-0.031-0.144-0.046
	c-0.489-0.151-0.931-0.29-1.347-0.425l-0.015-0.005c-0.006-0.002-0.012-0.003-0.017-0.006l-0.404-0.134l-0.518-0.17
	c-0.011-0.003-0.02-0.007-0.028-0.01l-0.014-0.005c-0.499-0.168-1.031-0.355-1.571-0.546l-0.293-0.104l-0.543-0.194
	c-0.006-0.002-0.011-0.005-0.018-0.007l-0.033-0.011c-0.125-0.045-0.259-0.097-0.388-0.145c-0.29-0.108-0.58-0.215-0.866-0.324
	c-0.009-0.003-0.016-0.006-0.025-0.009c-0.349-0.134-0.693-0.266-1.026-0.399l-0.284-0.117c-0.789-0.317-1.499-0.612-2.161-0.895
	l-0.929-0.408c-0.526-0.231-1.054-0.468-1.518-0.682l-0.033-0.016c-0.012-0.006-0.023-0.01-0.034-0.016l-1.594-0.761l-0.124-0.059
	v-0.001l-0.002-0.001l-1.464-0.975c-9.503-4.754-21.409-12.185-30.742-22.817c-16.077-15.872-32.082-25.023-46.517-30.094
	c-0.097-0.034-0.195-0.068-0.292-0.102c-1.648-0.574-3.277-1.094-4.883-1.566c-0.162-0.048-0.325-0.096-0.487-0.143
	c-0.489-0.14-0.975-0.279-1.46-0.41c-0.163-0.044-0.324-0.086-0.487-0.129c-0.847-0.227-1.688-0.438-2.523-0.639
	c-0.221-0.053-0.443-0.108-0.664-0.159c-0.41-0.095-0.819-0.187-1.226-0.276c-0.283-0.062-0.564-0.121-0.845-0.181
	c-0.381-0.079-0.761-0.161-1.137-0.236c-0.008-0.001-0.016-0.002-0.023-0.005c-0.758-0.15-1.508-0.29-2.251-0.419
	c-0.022-0.003-0.041-0.007-0.062-0.01c-0.011-0.001-0.02-0.003-0.032-0.006c-0.719-0.125-1.434-0.24-2.139-0.347
	c-0.052-0.008-0.104-0.015-0.156-0.023c-0.025-0.003-0.049-0.007-0.074-0.01c-0.655-0.096-1.303-0.188-1.945-0.271
	c-0.124-0.016-0.244-0.027-0.365-0.043c-0.6-0.075-1.199-0.145-1.788-0.207c-0.139-0.015-0.274-0.026-0.414-0.04
	c-0.009-0.001-0.016-0.001-0.025-0.002c-0.556-0.057-1.11-0.11-1.656-0.155c-0.15-0.012-0.297-0.023-0.445-0.033
	c-0.061-0.005-0.121-0.009-0.182-0.014c-0.474-0.036-0.947-0.073-1.412-0.102c-0.219-0.014-0.434-0.023-0.65-0.034
	c-0.033-0.001-0.065-0.003-0.096-0.005c-0.419-0.023-0.842-0.048-1.252-0.065c-0.394-0.016-0.778-0.025-1.165-0.035
	c-0.261-0.009-0.525-0.019-0.779-0.024c-0.641-0.012-1.271-0.019-1.893-0.019c-0.971,0-1.936,0.018-2.892,0.048
	c-0.299,0.009-0.593,0.024-0.889,0.035c-0.668,0.026-1.335,0.058-1.994,0.097c-0.323,0.02-0.644,0.041-0.964,0.063
	c-0.664,0.046-1.323,0.101-1.978,0.161c-0.276,0.026-0.552,0.048-0.826,0.075c-0.898,0.091-1.792,0.189-2.674,0.303
	c-0.015,0.002-0.029,0.003-0.045,0.006c-0.927,0.119-1.841,0.254-2.75,0.399c-0.201,0.032-0.397,0.067-0.595,0.1
	c-0.698,0.116-1.391,0.237-2.079,0.367c-0.241,0.045-0.483,0.093-0.724,0.14c-0.671,0.131-1.335,0.27-1.992,0.415
	c-0.205,0.045-0.41,0.088-0.613,0.135c-0.843,0.19-1.677,0.389-2.498,0.599c-0.002,0.001-0.005,0.001-0.006,0.001
	c-2.48,9.719-3.801,19.902-3.801,30.393c0,56.807,38.662,104.579,91.106,118.455c1.388,0.057,2.775,0.112,4.195,0.151
	c0.128,0.002,0.257-0.012,0.385-0.019c0.208-0.008,0.414-0.032,0.617-0.062c0.306-0.048,0.603-0.118,0.893-0.211
	c0.005-0.001,0.01-0.003,0.015-0.005c0.29-0.093,0.572-0.21,0.842-0.348c0.02-0.01,0.039-0.02,0.059-0.032
	c0.048-0.025,0.095-0.05,0.142-0.076c0.276-0.158,0.54-0.338,0.787-0.54c0.009-0.007,0.018-0.015,0.026-0.022
	c0.246-0.204,0.477-0.427,0.689-0.673c0.007-0.009,0.014-0.018,0.023-0.026c0.042-0.051,0.085-0.102,0.126-0.155
	c0.131-0.165,0.258-0.337,0.372-0.519c0.25-0.407,0.441-0.837,0.58-1.283c0.014-0.043,0.028-0.086,0.041-0.13
	c0.097-0.339,0.161-0.684,0.194-1.033c0.001-0.02,0.003-0.039,0.005-0.059c0.091-1.071-0.12-2.165-0.646-3.145l-0.216-0.407
	c-0.002-0.003-0.005-0.007-0.007-0.01l-4.313-8.052h0.002l0.005,0.001c0.042,0.009,8.878,1.813,21.942,1.813
	c28.375,0,79.943-8.552,106.517-65.822c0.111-0.239,0.199-0.484,0.275-0.731C511.817,250.259,511.851,250.089,511.885,249.919z"/>
<g>
</g>
<g>
</g>
<g>
</g>
<g>
</g>
<g>
</g>
<g>
</g>
<g>
</g>
<g>
</g>
<g>
</g>
<g>
</g>
<g>
</g>
<g>
</g>
<g>
</g>
<g>
</g>
<g>
</g>
</svg>
